<svg width="823" height="91" viewBox="0 0 823 91" fill="none" xmlns="http://www.w3.org/2000/svg">
<path d="M694.845 91H726.824V58.3064H737.532L776.957 90.9935H823L767.839 45.9956L819.131 0H773.918L737.849 32.0004H725.69V0.00622698H694.852L694.845 91ZM94.0231 0.00622698L142.865 90.9935H108.885L100.412 75.5622H44.0923L35.4487 90.9935H0L50.1968 0.00622698H94.0231ZM87.0891 52.5293L71.9865 26.0009L71.8789 25.7851L56.884 52.5297L87.0891 52.5293ZM147.506 90.9811H179.593V58.3064H190.288L229.726 90.9935H275.769L220.481 45.9956L271.874 0.00622698H226.674L190.598 32.0004H178.332V0.00622698H147.5L147.506 90.9811ZM337.11 0.00622698C349.275 0.00622698 361.439 0.00622698 373.604 0.00622698C379.062 0.00622698 389.334 4.97614 392.797 15.6663C395.628 24.6597 393.633 39.462 385.977 44.8706C391.537 47.1959 395.311 55.9805 395.837 65.0753V68.6727C395.727 70.2605 395.527 71.8376 395.204 73.3185C393.203 83.3732 385.345 90.9873 379.057 90.9873C364.999 90.9873 351.049 90.9873 337.105 90.9873C318.64 90.9873 300.187 90.9873 281.829 90.9873C281.741 60.7092 281.741 30.3545 281.633 0C300.098 0.00622512 318.658 0.00622698 337.11 0.00622698ZM337.11 65.6981H359.863C362.592 65.6981 364.891 63.4737 364.891 60.8361C364.891 58.2048 362.586 56.0694 359.863 56.0694H310.685V65.6981H337.11ZM337.11 33.0111H358.609C361.351 33.0111 363.548 30.7795 363.548 28.1364C363.548 25.4924 361.351 23.2741 358.609 23.2741H310.692V33.0047L337.11 33.0111ZM547.7 0.00622698V90.9935H580.096V29.8841L626.215 90.9811H676.171V0.00622698H644.187V63.5753L597.207 0.00622698H547.7ZM493.254 0.00622698L542.089 90.9935H508.218L499.796 75.8735H443.469L434.958 90.9935H399.522L449.713 0.00622698H493.254ZM486.77 52.5293L471.559 26.0009L471.449 25.7851L456.454 52.5294L486.77 52.5293Z" fill="#DF392E"/>
</svg>
