<svg version="1.2" xmlns="http://www.w3.org/2000/svg" viewBox="0 0 1171 1477" width="1171" height="1477">
	<title>barkaaa-svg</title>
	<style>
		.s0 { fill: #e31837 } 
		.s1 { fill: #f78f1d } 
	</style>
	<path id="Layer" class="s0" d="m1112 926.9l-170.5-282.4c-1.6 165.9 3.4 331.9-2.7 497.6-11.9 77.3-104.7 132.9-176.3 94.3-64.6-30.5-91.5-118.3-54.8-179.7 62.2-163.6 124.4-327.2 186.5-490.8l-77.9-129.1c-107.6 181.3-220.6 359.5-324.6 542.9-73.1 158.2-7 365.4 146 450.1 140.3 82.8 336.7 54.4 443.4-70.2 104.4-116.5 121.3-303.1 30.9-432.7z"/>
	<path id="Layer" class="s1" d="m59.5 548.6l169.8 281.6c1.6-165.7-3.5-331.6 2.7-497.1 12.2-76.6 104.4-130.6 175.3-92.9 63.8 29.8 91.6 116 55.8 177.1-62.3 163.7-124.4 327.4-186.7 491.1l77.7 128.7c107.2-180.6 219.8-358.2 323.5-540.9 72.9-157.8 7-364.2-145.6-448.6-139.7-82.5-335.4-54.3-441.7 69.9-104.1 116.1-121 302.1-30.8 431.1z"/>
</svg>