<svg width="441" height="561" viewBox="0 0 441 561" fill="none" xmlns="http://www.w3.org/2000/svg">
<path d="M418.4 352.994L354.062 246.381V420.931C354.062 452.585 332.919 474.182 306.836 474.182C280.764 474.182 259.599 452.972 259.599 426.912C259.599 421.651 260.485 416.611 262.069 411.871L262.756 409.999L263.387 408.338L336.197 216.732L306.792 168L193.733 355.397H193.778C180.631 376.064 173 400.585 173 426.912C173 500.852 232.918 560.77 306.836 560.77C380.732 560.77 440.65 500.852 440.65 426.912C440.65 399.588 432.443 374.192 418.4 352.994Z" fill="#E31837"/>
<path d="M22.2507 207.754L86.566 314.389V139.319C86.566 107.92 107.72 86.6103 133.825 86.6103C159.886 86.6103 181.051 107.776 181.051 133.858C181.051 139.097 180.143 144.203 178.57 148.943H178.592L177.894 150.737L177.241 152.454L104.442 344.016L133.836 392.77L246.917 205.417H246.895C259.997 184.706 267.639 160.163 267.639 133.858C267.639 59.9516 207.699 -3.05176e-05 133.825 -3.05176e-05C59.9073 -3.05176e-05 0 59.9516 0 133.858C0 161.159 8.19586 186.578 22.2507 207.754Z" fill="#F78E1E"/>
</svg>
