<svg version="1.2" xmlns="http://www.w3.org/2000/svg" viewBox="0 0 1490 1553" width="1490" height="1553">
	<title>BurganBankAnnualReport2022ENG-4-pdf-svg-svg (1)-svg</title>

	<style>
		.s0 { fill: #f78f1e } 
		.s1 { fill: #0069aa } 
		.s2 { fill: #00a0e4 } 
	</style>
	<g id="Clip-Path: Clip-Path: Clip-Path: Page 1" clip-path="url(#cp1)">
		<g id="Clip-Path: Clip-Path: Page 1">
			<g id="Clip-Path: Page 1">
				<g id="Page 1">
					<path id="Path 20" class="s0" d="m1194.6 1274.4c-76.4 79.1-99.2 183.1-49.4 230.8 51.6 49.8 153.4 22.7 230.3-59 76.5-79.1 99.2-183.2 49.4-230.4-52-49.8-153.4-22.7-230.3 58.6z"/>
					<path id="Path 21" fill-rule="evenodd" class="s1" d="m1036.9 363.1c-144.6 47.6-302.8 171.8-454 330-24.9 24.9-42.8 47.6-65.6 72.5l-282.2-260c20.5-27.1 42.8-54.2 65.5-79.1 313.8-325.7 657.2-504.4 772.1-393.4 59 56.4 36.3 178.3-36.3 330z"/>
					<path id="Path 23" fill-rule="evenodd" class="s2" d="m1119.5 340.4q-2.2 4.8-2.2 7-2.2 4.3-4.4 6.5c-65.5 142.5-183.1 309.9-338.6 470.3-151.2 160.8-313.8 285-451.4 357.5q-4.8 2.2-7 2.2-2.2 2.2-6.5 4.4c-133.3 68.2-246.5 88.3-309.4 49.8l331.6 267.1c160.4 135.5 503.4-29.3 804-344 293.2-307.3 430.9-651.3 311.6-798.1 0 0-13.6-15.7-16.2-20.6l-275.3-309.4c40.7 60.7 24.9 171.8-36.2 307.3z"/>
				</g>
			</g>
		</g>
	</g>
</svg>