<svg width="310" height="202" viewBox="0 0 310 202" fill="none" xmlns="http://www.w3.org/2000/svg">
<path d="M29.8295 187.569V195.128H16.5427C13.8241 195.128 11.4263 194.784 9.34919 194.097C7.27208 193.409 5.54628 192.432 4.17178 191.164C2.78847 189.884 1.72182 188.3 1.05612 186.537C0.331212 184.597 -0.0264043 182.538 0.0015175 180.467V175.428C-0.0263279 173.356 0.331285 171.298 1.05612 169.357C1.72217 167.594 2.78877 166.01 4.17178 164.73C5.54628 163.463 7.27208 162.486 9.34919 161.798C11.4263 161.11 13.8241 160.767 16.5427 160.767H29.6006V168.326H17.0007C14.1599 168.326 12.2204 168.884 11.1819 169.999C10.1435 171.114 9.62421 172.954 9.62409 175.519V180.375C9.62409 182.941 10.1586 184.781 11.2276 185.896C12.2966 187.01 14.2973 187.567 17.2297 187.568L29.8295 187.569Z" fill="black"/>
<path d="M60.9395 183.949H41.2838V184.133C41.2838 185.873 41.6656 187.034 42.4292 187.614C43.1929 188.195 44.5063 188.485 46.3696 188.485H60.2981V195.128H46.8735C44.1853 195.128 41.9174 194.83 40.0697 194.235C38.2221 193.639 36.7406 192.799 35.6254 191.715C34.508 190.628 33.6742 189.283 33.1972 187.798C32.6776 186.17 32.4224 184.468 32.4414 182.759V179.277C32.4414 175.643 33.4952 172.734 35.6028 170.55C37.7103 168.366 41.162 167.274 45.9576 167.274H47.7903C50.3565 167.274 52.4946 167.579 54.2046 168.19C55.9146 168.801 57.2662 169.664 58.2594 170.779C59.269 171.926 59.9845 173.302 60.3443 174.787C60.7572 176.481 60.9572 178.22 60.9398 179.964L60.9395 183.949ZM48.7978 173.412H45.2241C43.758 173.412 42.7347 173.733 42.1543 174.375C41.5739 175.016 41.2838 176.085 41.2838 177.581V178.177H52.6925V177.581C52.6925 176.085 52.3947 175.016 51.799 174.375C51.2034 173.733 50.203 173.412 48.7978 173.412Z" fill="black"/>
<path d="M65.4292 201.999V167.641H84.9473C88.3379 167.641 90.9954 168.771 92.9198 171.031C94.8442 173.291 95.8064 176.284 95.8062 180.01V182.759C95.8062 186.485 94.8441 189.478 92.9198 191.738C90.9955 193.998 88.338 195.128 84.9473 195.128H74.1346V202L65.4292 201.999ZM81.9689 174.42H74.1346V188.347H81.9693C83.8324 188.347 85.1155 187.92 85.8186 187.064C86.5217 186.209 86.8732 184.88 86.8732 183.078V179.459C86.8732 177.658 86.5217 176.367 85.8186 175.588C85.1155 174.809 83.8324 174.42 81.9693 174.42H81.9689Z" fill="black"/>
<path d="M142.539 170.48V173.87C142.539 177.597 141.409 180.163 139.149 181.567C136.888 182.972 133.391 183.674 128.657 183.674H120.639V195.128H111.475V160.769H128.657C133.391 160.769 136.888 161.517 139.149 163.013C141.41 164.51 142.54 166.999 142.539 170.48ZM133.376 173.596V170.893C133.376 169.824 133.048 168.992 132.391 168.396C131.734 167.8 130.581 167.502 128.932 167.503H120.639V176.94H128.932C130.581 176.94 131.734 176.643 132.391 176.047C133.047 175.451 133.376 174.634 133.376 173.596Z" fill="black"/>
<path d="M174.382 179.735V183.033C174.382 186.851 173.229 189.898 170.923 192.172C168.617 194.446 165.326 195.584 161.049 195.585H157.842C153.565 195.585 150.267 194.447 147.946 192.172C145.626 189.897 144.466 186.85 144.464 183.033V179.735C144.464 175.917 145.625 172.871 147.946 170.596C150.268 168.321 153.566 167.183 157.842 167.183H161.049C165.325 167.183 168.616 168.32 170.923 170.596C173.23 172.871 174.383 175.917 174.382 179.735ZM165.448 179.002C165.448 177.231 165.12 175.91 164.464 175.039C163.807 174.168 162.639 173.733 160.959 173.733H157.934C156.254 173.733 155.078 174.168 154.406 175.039C153.734 175.909 153.398 177.23 153.398 179.002V183.72C153.398 185.523 153.734 186.859 154.406 187.729C155.078 188.599 156.254 189.034 157.934 189.035H160.957C162.637 189.035 163.805 188.599 164.462 187.729C165.12 186.858 165.448 185.522 165.447 183.72L165.448 179.002Z" fill="black"/>
<path d="M178.734 177.856C178.731 176.565 178.932 175.282 179.33 174.054C179.718 172.848 180.358 171.739 181.209 170.801C182.136 169.804 183.269 169.023 184.531 168.51C185.89 167.931 187.516 167.641 189.41 167.64H197.474V174.283H191.38C189.822 174.283 188.776 174.558 188.242 175.108C187.707 175.658 187.44 176.605 187.44 177.949V195.128H178.734V177.856Z" fill="black"/>
<path d="M199.993 174.283V167.639H204.437V162.051H212.455V167.639H221.848V174.283H212.455V185.415C212.455 186.576 212.7 187.378 213.188 187.82C213.677 188.263 214.471 188.484 215.571 188.485H221.848V195.128H214.563C210.775 195.128 208.064 194.326 206.43 192.723C204.797 191.119 203.98 188.684 203.979 185.416V174.283L199.993 174.283Z" fill="black"/>
<path d="M229.499 195.128V174.283H225.284V167.639H229.545C229.758 164.769 230.613 162.6 232.111 161.134C233.608 159.668 236.128 158.935 239.671 158.935H245.994V164.616H239.304C238.632 164.616 238.128 164.784 237.793 165.12C237.457 165.456 237.289 166.005 237.289 166.769V167.639H245.994V174.283H238.205V195.128H229.499Z" fill="black"/>
<path d="M277.149 179.735V183.033C277.149 186.851 275.996 189.898 273.69 192.172C271.384 194.446 268.093 195.584 263.817 195.586H260.61C256.333 195.586 253.034 194.448 250.713 192.173C248.392 189.897 247.232 186.851 247.231 183.034V179.735C247.231 175.918 248.392 172.871 250.713 170.596C253.035 168.321 256.333 167.184 260.61 167.183H263.817C268.093 167.183 271.384 168.321 273.69 170.596C275.997 172.872 277.15 175.918 277.149 179.735ZM260.564 163.425H254.424V157.561H260.564V163.425ZM268.215 179.001C268.215 177.23 267.887 175.91 267.231 175.039C266.575 174.168 265.406 173.732 263.726 173.733H260.702C259.022 173.733 257.846 174.168 257.174 175.039C256.503 175.909 256.167 177.23 256.167 179.001V183.72C256.167 185.522 256.503 186.859 257.174 187.729C257.846 188.599 259.022 189.034 260.702 189.034H263.726C265.405 189.034 266.573 188.599 267.231 187.729C267.888 186.858 268.216 185.522 268.215 183.72V179.001ZM269.956 163.425H263.817V157.561H269.956L269.956 163.425Z" fill="black"/>
<path d="M293.552 184.087C293.624 184.354 293.785 184.589 294.01 184.751C294.16 184.848 294.334 184.904 294.514 184.911C294.688 184.915 294.858 184.858 294.995 184.751C295.18 184.567 295.314 184.338 295.384 184.087L300.745 167.64H310L300.149 194.303C299.334 196.52 297.874 198.443 295.957 199.823C293.987 201.274 291.352 201.999 288.053 201.999H280.539V194.715H288.832C289.932 194.715 290.764 194.463 291.329 193.96C291.894 193.456 292.375 192.624 292.773 191.463L293.093 190.547H290.894C289.641 190.547 288.611 190.272 287.801 189.722C286.992 189.173 286.359 188.333 285.9 187.202L277.928 167.64H287.504L293.552 184.087Z" fill="black"/>
<path d="M134.237 1.00831e-09V98.6291C134.366 98.6238 134.495 98.6203 134.625 98.6203C135.784 98.6193 136.93 98.8603 137.99 99.328L160.154 74.2579C159.603 73.0117 159.365 71.6496 159.46 70.2903C159.556 68.931 159.983 67.6158 160.704 66.4593C161.425 65.3028 162.418 64.3402 163.596 63.6553C164.774 62.9704 166.102 62.5841 167.464 62.53C168.825 62.4759 170.18 62.7557 171.408 63.345C172.637 63.9343 173.703 64.8151 174.514 65.9108C175.324 67.0065 175.854 68.2837 176.057 69.6311C176.261 70.9785 176.131 72.3552 175.68 73.6412L181.296 79.0894C182.38 78.5031 183.58 78.1638 184.81 78.0958C186.04 78.0278 187.271 78.2329 188.412 78.6963L203.933 60.2113C202.92 58.568 202.508 56.6243 202.767 54.7114C203.027 52.7986 203.942 51.0348 205.356 49.7205C206.77 48.4062 208.596 47.6227 210.522 47.5035C212.449 47.3842 214.358 47.9365 215.923 49.0664C217.489 50.1963 218.614 51.8338 219.107 53.7001C219.601 55.5663 219.432 57.5459 218.629 59.3017C217.827 61.0574 216.441 62.4807 214.706 63.3291C212.972 64.1776 210.998 64.3987 209.119 63.9548L192.972 83.1851C193.493 84.4189 193.709 85.7598 193.603 87.0947C193.497 88.4297 193.072 89.7196 192.363 90.8558C191.654 91.992 190.683 92.9412 189.53 93.6233C188.378 94.3054 187.078 94.7005 185.741 94.7753C184.403 94.8501 183.068 94.6024 181.846 94.0531C180.625 93.5037 179.554 92.6689 178.722 91.6188C177.891 90.5688 177.324 89.3343 177.07 88.0195C176.816 86.7047 176.882 85.348 177.262 84.0638L171.43 78.401C170.398 78.8992 169.274 79.1798 168.129 79.2251C166.983 79.2705 165.841 79.0797 164.773 78.6646L142.416 103.954C142.907 105.22 143.082 106.587 142.925 107.936C142.769 109.285 142.287 110.576 141.519 111.696C140.752 112.816 139.723 113.733 138.522 114.367C137.321 115 135.983 115.332 134.625 115.332C134.495 115.332 134.366 115.328 134.237 115.323V126.19C134.237 130.252 135.851 134.149 138.724 137.021C141.597 139.894 145.494 141.508 149.557 141.508H239.767V15.3181C239.767 13.3065 239.37 11.3146 238.601 9.45609C237.831 7.5976 236.702 5.90893 235.28 4.48651C233.857 3.06409 232.168 1.93577 230.31 1.16597C228.451 0.396177 226.459 -2.30789e-05 224.447 1.00831e-09H134.237ZM141.834 91.1286L137.197 96.3751C136.959 96.3178 136.719 96.2679 136.476 96.2285V34.4702H141.834V91.1286ZM150.253 81.6046L144.896 87.6655V22.6087H150.253V81.6046ZM158.673 64.9037C157.832 66.1855 157.271 67.6302 157.026 69.1434C156.782 70.6567 156.859 72.2045 157.253 73.6858L153.316 78.1399V33.7057H158.674L158.673 64.9037ZM167.092 59.9932C165.176 60.1139 163.327 60.7413 161.734 61.8112V25.1596H167.092V59.9932ZM175.511 63.1769C174.043 61.7024 172.183 60.679 170.152 60.2275V37.7878H175.511V63.1769ZM183.929 75.6163C183.224 75.7033 182.529 75.8584 181.854 76.0794L178.572 72.8939V72.54C178.658 71.9894 178.701 71.433 178.7 70.8758C178.7 70.318 178.657 69.7611 178.572 69.2099V50.6713H183.929V75.6163ZM192.349 70.034L187.534 75.7683C187.354 75.7307 187.173 75.6968 186.991 75.6681V25.2864H192.349V70.034ZM200.769 52.1495C199.918 54.5252 199.918 57.1225 200.769 59.4981V60.0057L195.411 66.3873V21.8419H200.769V52.1495Z" fill="#56A145"/>
<path d="M91.3142 44.5486V90.9316L85.9561 96.3352V44.5486H91.3142Z" fill="#56A145"/>
<path d="M99.7342 31.7923V76.0669C98.4853 77.8791 97.8178 80.0286 97.8206 82.2294C97.8206 82.8878 97.8799 83.5449 97.9978 84.1927L94.377 87.8447V31.7923H99.7342Z" fill="#56A145"/>
<path d="M108.154 22.608V71.3384C106.245 71.4366 104.397 72.0382 102.796 73.0822V22.608H108.154Z" fill="#56A145"/>
<path d="M116.574 35.1091V74.6613C115.119 73.149 113.258 72.0891 111.215 71.6087V35.1091H116.574Z" fill="#56A145"/>
<path d="M124.994 30.2617V89.9291L119.636 84.5714V30.2617H124.994Z" fill="#56A145"/>
<path d="M133.414 43.528V96.1366C132.789 96.2047 132.171 96.3276 131.568 96.5039L128.056 92.9907V43.528H133.414Z" fill="#56A145"/>
<path d="M178.703 70.8758C178.704 71.433 178.661 71.9894 178.575 72.54V69.2099C178.66 69.7611 178.703 70.318 178.703 70.8758Z" fill="#56A145"/>
<path d="M178.703 70.8758C178.704 71.433 178.661 71.9894 178.575 72.54V69.2099C178.66 69.7611 178.703 70.318 178.703 70.8758Z" fill="#56A145"/>
<path d="M134.238 98.6291V115.323C132.943 115.263 131.68 114.902 130.549 114.27C129.417 113.637 128.449 112.75 127.719 111.679C126.99 110.608 126.519 109.382 126.345 108.098C126.171 106.813 126.298 105.506 126.717 104.28L112.245 89.8096C111.119 90.3316 109.891 90.5965 108.65 90.585C107.41 90.5736 106.187 90.2861 105.071 89.7435L84.8855 110.096C85.6549 111.871 85.7847 113.858 85.253 115.717C84.7212 117.577 83.5607 119.195 81.9694 120.295C80.3781 121.395 78.4545 121.909 76.5266 121.749C74.5987 121.589 72.7859 120.766 71.3973 119.419C70.0087 118.072 69.1303 116.286 68.9119 114.364C68.6934 112.442 69.1485 110.504 70.1994 108.88C71.2504 107.256 72.8322 106.047 74.6751 105.458C76.5179 104.87 78.5078 104.939 80.3054 105.654L100.83 84.9598C100.393 83.6947 100.267 82.3432 100.461 81.019C100.656 79.6947 101.166 78.4367 101.948 77.3506C102.73 76.2645 103.762 75.3821 104.956 74.7779C106.151 74.1737 107.473 73.8652 108.811 73.8784C110.15 73.8916 111.465 74.2262 112.647 74.8539C113.83 75.4816 114.844 76.3842 115.604 77.4855C116.365 78.5868 116.85 79.8548 117.018 81.1826C117.186 82.5103 117.033 83.8591 116.571 85.1154L130.938 99.4783C131.967 98.9703 133.091 98.6812 134.238 98.6291Z" fill="#56A145"/>
</svg>
