<svg width="442" height="444" viewBox="0 0 442 444" fill="none" xmlns="http://www.w3.org/2000/svg">
<path d="M59.6801 192.56C63.8829 168.719 73.1359 146.057 86.8162 126.099L69.1778 108.294C63.5685 102.641 60.4201 94.9941 60.4201 87.0236C60.4201 79.0531 63.5685 71.4064 69.1778 65.7533C71.9401 62.9631 75.2266 60.7484 78.8478 59.237C82.469 57.7256 86.3531 56.9475 90.276 56.9475C94.1989 56.9475 98.0831 57.7256 101.704 59.237C105.325 60.7484 108.612 62.9631 111.374 65.7533L128.334 83.0142C148.374 69.1541 171.209 59.8744 195.225 55.8316V31.7751C194.95 27.7063 195.513 23.6243 196.878 19.7823C198.243 15.9404 200.382 12.4205 203.162 9.44106C205.942 6.46161 209.303 4.08616 213.038 2.4621C216.772 0.838031 220.8 0 224.871 0C228.942 0 232.97 0.838031 236.704 2.4621C240.439 4.08616 243.8 6.46161 246.58 9.44106C249.36 12.4205 251.499 15.9404 252.864 19.7823C254.23 23.6243 254.792 27.7063 254.517 31.7751V54.8803C278.959 59.2548 302.128 69.0026 322.358 83.4219L338.096 67.6561C340.859 64.8658 344.145 62.6511 347.767 61.1398C351.388 59.6284 355.272 58.8503 359.195 58.8503C363.118 58.8503 367.002 59.6284 370.623 61.1398C374.244 62.6511 377.531 64.8658 380.293 67.6561C385.902 73.3092 389.051 80.9559 389.051 88.9264C389.051 96.8969 385.902 104.544 380.293 110.197L364.283 126.37C377.963 146.328 387.216 168.991 391.419 192.832H410.007C414.105 192.555 418.217 193.125 422.086 194.506C425.955 195.887 429.5 198.049 432.501 200.859C435.501 203.669 437.893 207.066 439.529 210.841C441.164 214.615 442.008 218.686 442.008 222.801C442.008 226.915 441.164 230.986 439.529 234.76C437.893 238.535 435.501 241.932 432.501 244.742C429.5 247.552 425.955 249.714 422.086 251.095C418.217 252.476 414.105 253.046 410.007 252.769H391.283C386.987 277.204 377.401 300.4 363.197 320.726L376.765 334.997C382.375 340.65 385.523 348.296 385.523 356.267C385.523 364.237 382.375 371.884 376.765 377.537C374.003 380.327 370.716 382.542 367.095 384.054C363.474 385.565 359.59 386.343 355.667 386.343C351.744 386.343 347.86 385.565 344.239 384.054C340.618 382.542 337.331 380.327 334.569 377.537L320.051 362.995C300.301 376.743 277.799 386.018 254.11 390.177V412.195C254.385 416.264 253.823 420.346 252.457 424.188C251.092 428.03 248.953 431.55 246.173 434.529C243.393 437.508 240.032 439.884 236.297 441.508C232.563 443.132 228.535 443.97 224.464 443.97C220.393 443.97 216.365 443.132 212.631 441.508C208.896 439.884 205.535 437.508 202.755 434.529C199.975 431.55 197.836 428.03 196.471 424.188C195.106 420.346 194.543 416.264 194.818 412.195V388.954C171.481 384.591 149.331 375.327 129.827 361.771L113.817 377.945C111.043 380.739 107.745 382.957 104.112 384.47C100.48 385.983 96.5845 386.762 92.6504 386.762C88.7164 386.762 84.8212 385.983 81.1887 384.47C77.5563 382.957 74.2583 380.739 71.4843 377.945C65.9078 372.275 62.7818 364.634 62.7818 356.675C62.7818 348.715 65.9078 341.075 71.4843 335.404L87.2232 319.502C73.0121 299.181 63.4248 275.983 59.1373 251.546H32.0012C27.903 251.823 23.7917 251.253 19.9224 249.872C16.053 248.491 12.5082 246.329 9.50763 243.519C6.50711 240.709 4.11491 237.311 2.47941 233.537C0.843916 229.763 0 225.692 0 221.577C0 217.463 0.843916 213.392 2.47941 209.618C4.11491 205.843 6.50711 202.446 9.50763 199.636C12.5082 196.826 16.053 194.663 19.9224 193.283C23.7917 191.902 27.903 191.332 32.0012 191.609H56.8308" fill="white"/>
<path fill-rule="evenodd" clip-rule="evenodd" d="M126.299 210.636C128.278 192.368 135.276 175.007 146.516 160.484L182.064 196.365C179.472 200.863 177.552 205.717 176.365 210.772M162.797 142.816C176.507 131.705 192.964 124.52 210.421 122.021V172.988C206.173 174.316 202.114 176.189 198.345 178.561L162.797 142.816ZM234.436 121.342C254.002 123.299 272.554 131.006 287.759 143.495L252.211 179.104C246.835 175.521 240.787 173.07 234.436 171.901V121.342ZM304.312 160.756C315.21 175.267 322.005 192.45 323.986 210.5H273.784C272.721 205.747 270.984 201.17 268.628 196.909L304.312 160.756ZM323.714 234.421C321.428 252.475 314.301 269.572 303.091 283.893L267.407 248.148C270.068 243.944 272.081 239.362 273.377 234.557L323.714 234.421ZM285.995 300.882C271.2 312.611 253.349 319.829 234.572 321.677V271.661C240.173 270.544 245.542 268.476 250.447 265.545L285.995 300.882ZM210.692 321.133C193.838 318.736 177.894 311.991 164.425 301.562L200.109 265.545C203.4 267.453 206.908 268.958 210.557 270.03L210.692 321.133ZM147.194 284.709C135.581 270.194 128.208 252.741 125.892 234.285H176.23C177.552 239.555 179.754 244.564 182.742 249.1L147.194 284.709ZM72.9767 238.77H37.4284C32.5596 239.187 27.7226 237.667 23.9645 234.538C20.2064 231.409 17.8293 226.924 17.3477 222.053C17.6015 219.597 18.3369 217.215 19.5118 215.045C20.6866 212.874 22.2777 210.957 24.1938 209.404C26.1099 207.851 28.3133 206.692 30.6775 205.994C33.0418 205.296 35.5204 205.072 37.9711 205.336H73.3838C76.4103 176.41 87.56 148.935 105.54 126.099L81.3889 101.77C77.6912 98.5816 75.3709 94.0817 74.9155 89.2157C74.4601 84.3497 75.905 79.4962 78.9466 75.6749C82.7119 72.5688 87.5519 71.0825 92.4081 71.5409C97.2644 71.9994 101.742 74.3652 104.862 78.1213L128.877 102.314C151.64 83.8675 179.262 72.441 208.386 69.4229V36.2601C207.886 33.7927 207.939 31.2448 208.543 28.8006C209.146 26.3565 210.284 24.0772 211.875 22.1278C213.466 20.1783 215.469 18.6074 217.74 17.5286C220.011 16.4499 222.493 15.8903 225.007 15.8903C227.52 15.8903 230.002 16.4499 232.273 17.5286C234.544 18.6074 236.548 20.1783 238.138 22.1278C239.729 24.0772 240.867 26.3565 241.471 28.8006C242.074 31.2448 242.128 33.7927 241.627 36.2601V69.4229C270.884 72.5303 298.604 84.1004 321.408 102.722L343.659 80.16C346.779 76.4039 351.257 74.0381 356.113 73.5796C360.969 73.1212 365.809 74.6075 369.574 77.7136C372.649 81.5215 374.115 86.3831 373.658 91.2594C373.202 96.1357 370.86 100.64 367.132 103.809L345.152 126.506C363.061 149.229 374.207 176.552 377.308 205.336H406.615C411.497 204.956 416.334 206.508 420.088 209.659C423.841 212.809 426.213 217.307 426.696 222.189C426.214 227.06 423.837 231.545 420.079 234.674C416.321 237.803 411.484 239.323 406.615 238.906H377.172C373.891 268.232 362.31 296.007 343.795 318.959L365.639 341.248C367.719 342.643 369.466 344.481 370.753 346.631C372.04 348.781 372.836 351.19 373.084 353.684C373.332 356.179 373.026 358.698 372.188 361.06C371.349 363.422 370 365.569 368.235 367.347C366.47 369.125 364.335 370.489 361.982 371.343C359.628 372.196 357.116 372.517 354.624 372.283C352.132 372.049 349.723 371.265 347.569 369.988C345.415 368.711 343.57 366.973 342.167 364.897L320.051 342.608C297.547 360.699 270.324 371.928 241.627 374.955V407.846C242.128 410.313 242.074 412.861 241.471 415.305C240.867 417.749 239.729 420.029 238.138 421.978C236.548 423.928 234.544 425.498 232.273 426.577C230.002 427.656 227.52 428.216 225.007 428.216C222.493 428.216 220.011 427.656 217.74 426.577C215.469 425.498 213.466 423.928 211.875 421.978C210.284 420.029 209.146 417.749 208.543 415.305C207.939 412.861 207.886 410.313 208.386 407.846V375.227C180.023 371.951 153.141 360.794 130.777 343.015L107.032 366.8C103.937 370.547 99.4824 372.91 94.6484 373.369C89.8144 373.828 84.9963 372.345 81.2532 369.247C78.1625 365.455 76.6737 360.604 77.1046 355.729C77.5356 350.853 79.8522 346.339 83.5598 343.151L107.032 319.367C88.4975 296.426 76.9144 268.645 73.6551 239.314" fill="#CE163A"/>
</svg>
