<svg width="215" height="256" viewBox="0 0 215 256" fill="none" xmlns="http://www.w3.org/2000/svg">
<path d="M37.245 22.3032V234.039H29.8438V22.3032H37.245ZM22.6812 44.2645V211.839H15.0413V44.2645H22.6812ZM7.40125 66.2258V190.355H0V66.2258H7.40125ZM162.35 256V131.871H52.0475V256H44.6463V0.341919H52.0475V124.471H162.35V0.341919H169.751V256H162.35ZM177.391 234.277V22.5419H184.793V234.277H177.391ZM191.955 212.077V44.5032H199.356V212.077H191.955ZM206.996 190.355V66.2258H214.398V190.355H206.996ZM147.548 116.832H66.3725H58.9713V22.0645H66.3725V109.432H147.548V22.0645H155.188V116.832H147.548ZM137.281 102.032H81.4137H74.0125V44.0258H81.4137V94.6322H132.984V44.0258H140.385V102.032H137.281ZM120.807 87.7097H95.7387H88.3375V65.9871H95.7387V80.3097H117.943V65.9871H125.344V87.7097C125.583 87.7097 120.807 87.7097 120.807 87.7097ZM66.3725 138.794H147.548H154.949V233.561H147.548V146.432H66.3725V233.8H58.9713V139.032C58.9713 139.032 66.6113 139.032 66.3725 138.794ZM76.8775 153.594H132.745H140.146V211.6H132.745V161.232H81.175V211.839H73.7738V153.832C73.7738 153.832 76.8775 153.832 76.8775 153.594ZM93.1125 167.916H118.181H125.582V189.639H118.181V175.316H95.9775V189.639H88.5762V167.916C88.5762 168.155 93.1125 168.155 93.1125 167.916Z" fill="#005696"/>
</svg>
