<svg width="131" height="321" viewBox="0 0 131 321" fill="none" xmlns="http://www.w3.org/2000/svg">
<path d="M36.7922 48.6546C36.7922 48.6546 48.4824 49.1819 48.4824 59.6509V132.241L78.3724 149.067V59.2442C78.3724 59.2442 77.8438 48.6396 89.7907 48.6396V44.2712H36.7922V48.6546Z" fill="#00428A"/>
<path d="M81.8309 70.1952V77.2147C81.8309 77.2147 108.942 88.3918 110.694 120.477H115.3V70.2856H111.222C111.222 70.2856 108.534 77.1394 101.315 77.1394C94.095 77.1394 81.8459 70.2103 81.8459 70.2103L81.8309 70.1952Z" fill="#00428A"/>
<path d="M44.9785 67.4537V73.5995C44.9785 73.5995 17.9129 77.7419 17.9129 101.964C17.9129 101.964 15.7682 121.17 48.4977 137.739L89.0207 159.958C89.0207 159.958 118.216 173.138 127.157 196.607C136.099 220.076 130.299 251.468 100.605 266.395C88.5223 272.541 77.693 273.174 73.7962 273.671C73.7962 273.671 83.6136 278.567 83.6136 290.497C83.6136 302.427 70.2771 320.879 64.4773 321H61.079C61.079 321 60.5806 320.367 62.3326 318.364C64.0997 316.361 72.2859 306.569 70.262 300.921C70.262 300.921 65.4893 303.029 60.7769 303.029C56.0646 303.029 46.9269 298.962 46.9269 288.252C46.9269 277.542 55.0678 273.144 57.9979 273.144C57.9979 273.144 53.4366 272.662 38.9371 267.465C24.4376 262.268 13.2006 257.237 5.87532 269.739H1.9635V216.445H6.69093C6.69093 216.445 17.4447 267.133 70.0505 267.133C106.541 266.968 110.936 236.916 110.936 231.388C110.936 225.86 110.936 208.974 83.7344 193.534C56.5328 178.094 30.464 163.965 30.464 163.965C30.464 163.965 0 149.835 0 116.364C0 82.8936 30.7812 67.4386 44.9483 67.4386L44.9785 67.4537Z" fill="#00428A"/>
<path d="M48.3765 178.546L78.2061 195.372V229.761C78.2061 229.761 77.8286 240.185 89.7906 240.185V244.825H36.6712V239.809C36.6712 239.809 48.3765 240.065 48.3765 229.144V178.546Z" fill="#00428A"/>
<path d="M79.7772 16.4793C79.7772 7.38104 72.3764 0 63.2538 0C54.1312 0 46.7305 7.38104 46.7305 16.4793C46.7305 25.5776 54.1312 32.9586 63.2538 32.9586C72.3764 32.9586 79.7772 25.5776 79.7772 16.4793Z" fill="#00428A"/>
</svg>
