<svg width="240" height="240" viewBox="0 0 240 240" fill="none" xmlns="http://www.w3.org/2000/svg">
<path d="M239.124 119.6C239.124 185.617 185.596 239.162 119.562 239.162C53.5281 239.162 0 185.617 0 119.6C0 53.5831 53.5281 0.0377808 119.562 0.0377808C185.596 0.0377808 239.124 53.5659 239.124 119.6Z" fill="white"/>
<path d="M5.68607 119.6C5.68607 56.7096 56.6718 5.72388 119.562 5.72388C182.453 5.72388 233.438 56.6924 233.438 119.6C233.438 182.508 182.453 233.459 119.562 233.459C56.6718 233.459 5.68607 182.49 5.68607 119.6Z" fill="#006548"/>
<mask id="mask0_1024_187" style="mask-type:luminance" maskUnits="userSpaceOnUse" x="5" y="5" width="229" height="229">
<path d="M5.68607 119.6C5.68607 56.7096 56.6718 5.72388 119.562 5.72388C182.453 5.72388 233.438 56.6924 233.438 119.6C233.438 182.508 182.453 233.459 119.562 233.459C56.6718 233.459 5.68607 182.49 5.68607 119.6Z" fill="white"/>
</mask>
<g mask="url(#mask0_1024_187)">
<path d="M114.151 221.795L102.676 228.941L95.1172 210.612L114.151 221.795ZM95.8731 171.479L114.254 182.851L103.397 190.221L95.8731 171.479ZM95.2718 131.968L114.546 143.615L103.243 151.775L95.2718 131.968ZM125.85 163.749L144.66 152.067L137.325 171.256L125.832 163.749H125.85ZM95.5982 191.062L130.9 212.484L120.232 219.39L101.886 209.117L95.5982 191.062ZM109.41 192.316L144.316 171.204L138.699 188.176L120.507 200.476L109.393 192.316H109.41ZM95.6154 152.48L131.192 172.922L119.459 180.927L101.714 170.173L95.6154 152.48ZM108.894 153.699L144.351 132.381L137.943 150.624L120.662 161.069L108.894 153.699ZM107.795 133.291H131.467L120.232 142.155L107.812 133.291H107.795ZM125.85 201.799L144.66 190.135L137.325 209.306L125.832 201.799H125.85ZM119.579 119.875C119.579 119.875 100.546 64.8865 96.9038 53.8923C95.4092 49.4087 94.7908 45.5436 97.6596 41.7987L119.562 13.1106L141.448 41.7987C144.316 45.5436 143.681 49.4087 142.203 53.8923C138.579 64.8865 119.562 119.875 119.562 119.875H119.579ZM227.357 126.179H126.296L172.317 102.49C197.982 89.28 206.485 100.343 215.882 111.956L227.357 126.162V126.179ZM124.046 121.095L155.809 64.1822C159.932 56.8126 170.462 53.1021 179.687 58.6336L215.367 80.0895L197.484 80.1238C189.616 80.141 183.346 83.1644 177.66 86.8063L124.063 121.095H124.046ZM11.7672 126.179L23.2425 111.973C32.6219 100.36 41.1253 89.28 66.8071 102.507L112.828 126.197H11.7672V126.179ZM115.079 121.095L61.4818 86.8063C55.7957 83.1644 49.5255 80.141 41.6406 80.1238L23.7578 80.0895L59.4375 58.6336C68.6623 53.0849 79.1928 56.7955 83.3156 64.1822L115.079 121.095ZM107.331 232.772L144.316 210.904L137.256 232.136C131.604 232.995 125.798 233.442 119.889 233.442C115.645 233.442 111.471 233.218 107.331 232.755V232.772Z" fill="#B68400"/>
</g>
</svg>
