<svg width="357" height="357" viewBox="0 0 357 357" fill="none" xmlns="http://www.w3.org/2000/svg">
<path fill-rule="evenodd" clip-rule="evenodd" d="M154.24 283.58L99.81 338.01L95.45 335.89C83.76 330.21 72.88 322.5 62.88 314.25L57.09 309.48L157.51 209.06C163.07 203.5 170.59 200.41 178.45 200.41C186.31 200.41 193.82 203.49 199.39 209.06L299.81 309.48L294.02 314.25C284.01 322.5 273.14 330.21 261.45 335.89L257.09 338.01L202.66 283.58V354.39L196.99 355.35C190.86 356.39 184.67 356.91 178.45 356.91C172.23 356.91 166.04 356.4 159.91 355.35L154.24 354.39V283.58ZM283.57 202.67L338 257.1L335.88 261.46C330.2 273.15 322.49 284.03 314.24 294.03L309.47 299.82L209.05 199.4C203.49 193.84 200.4 186.32 200.4 178.46C200.4 170.6 203.48 163.09 209.05 157.52L309.47 57.1L314.24 62.89C322.49 72.9 330.2 83.77 335.88 95.46L338 99.82L283.57 154.25H354.38L355.34 159.92C356.38 166.05 356.9 172.24 356.9 178.46C356.9 184.68 356.39 190.87 355.34 197L354.38 202.67H283.57ZM202.66 73.34L257.09 18.91L261.45 21.03C273.14 26.71 284.02 34.42 294.02 42.67L299.81 47.44L199.39 147.86C193.83 153.42 186.31 156.51 178.45 156.51C170.59 156.51 163.08 153.43 157.51 147.86L57.09 47.43L62.88 42.66C72.89 34.41 83.76 26.7 95.45 21.02L99.81 18.9L154.24 73.33V2.53L159.91 1.56C166.04 0.52 172.23 0 178.45 0C184.67 0 190.86 0.51 196.99 1.56L202.66 2.53V73.34ZM73.33 154.25L18.9 99.82L21.02 95.46C26.7 83.77 34.41 72.89 42.66 62.89L47.43 57.1L147.85 157.52C153.41 163.08 156.5 170.6 156.5 178.46C156.5 186.32 153.42 193.83 147.85 199.4L47.43 299.82L42.66 294.03C34.41 284.02 26.7 273.15 21.02 261.46L18.9 257.1L73.33 202.67H2.52L1.56 197C0.52 190.87 0 184.68 0 178.46C0 172.24 0.51 166.05 1.56 159.92L2.52 154.25H73.33Z" fill="#878786"/>
<mask id="mask0_1030_114" style="mask-type:luminance" maskUnits="userSpaceOnUse" x="6" y="67" width="144" height="223">
<path d="M6.80973 178.46C6.80973 172.8 7.25973 167.01 8.26973 161.06H89.7697L27.1397 98.43C32.1897 88.02 39.3297 77.62 47.9097 67.21L143.03 162.33C147.46 166.76 149.68 172.61 149.68 178.45C149.68 184.29 147.46 190.14 143.03 194.57L47.9097 289.69C39.3297 279.28 32.1997 268.88 27.1397 258.47L89.7697 195.84H8.26973C7.25973 189.89 6.79973 184.1 6.80973 178.44" fill="white"/>
</mask>
<g mask="url(#mask0_1030_114)">
<path d="M149.68 67.22H6.7998V289.71H149.68V67.22Z" fill="url(#paint0_linear_1030_114)"/>
</g>
<mask id="mask1_1030_114" style="mask-type:luminance" maskUnits="userSpaceOnUse" x="67" y="6" width="223" height="144">
<path d="M178.45 6.81998C184.11 6.81998 189.9 7.25998 195.85 8.27998V89.78L258.48 27.15C268.89 32.2 279.29 39.34 289.7 47.92L194.58 143.04C190.15 147.47 184.3 149.69 178.46 149.69C172.62 149.69 166.77 147.47 162.34 143.04L67.21 47.92C77.62 39.34 88.02 32.21 98.43 27.15L161.06 89.78V8.27998C167.01 7.26998 172.8 6.80998 178.46 6.81998" fill="white"/>
</mask>
<g mask="url(#mask1_1030_114)">
<path d="M289.7 6.81H67.21V149.69H289.7V6.81Z" fill="url(#paint1_linear_1030_114)"/>
</g>
<mask id="mask2_1030_114" style="mask-type:luminance" maskUnits="userSpaceOnUse" x="207" y="67" width="144" height="223">
<path d="M350.09 178.46C350.09 184.12 349.64 189.9 348.63 195.86H267.13L329.76 258.49C324.71 268.9 317.57 279.3 308.99 289.71L213.87 194.59C209.44 190.16 207.22 184.31 207.22 178.47C207.22 172.63 209.44 166.78 213.87 162.35L308.99 67.23C317.57 77.64 324.7 88.04 329.76 98.45L267.13 161.08H348.63C349.64 167.03 350.1 172.82 350.09 178.48" fill="white"/>
</mask>
<g mask="url(#mask2_1030_114)">
<path d="M350.1 67.22H207.22V289.71H350.1V67.22Z" fill="url(#paint2_linear_1030_114)"/>
</g>
<mask id="mask3_1030_114" style="mask-type:luminance" maskUnits="userSpaceOnUse" x="67" y="207" width="223" height="144">
<path d="M178.45 350.1C172.79 350.1 167.01 349.65 161.05 348.64V267.14L98.4202 329.77C88.0102 324.72 77.6102 317.58 67.2002 309.01L162.32 213.89C166.75 209.46 172.6 207.24 178.44 207.24C184.28 207.24 190.13 209.46 194.56 213.89L289.68 309.01C279.27 317.59 268.87 324.72 258.46 329.77L195.83 267.14V348.64C189.88 349.65 184.09 350.11 178.43 350.1" fill="white"/>
</mask>
<g mask="url(#mask3_1030_114)">
<path d="M289.7 207.23H67.21V350.11H289.7V207.23Z" fill="url(#paint3_linear_1030_114)"/>
</g>
<defs>
<linearGradient id="paint0_linear_1030_114" x1="6.7998" y1="178.46" x2="149.68" y2="178.46" gradientUnits="userSpaceOnUse">
<stop stop-color="#003A73"/>
<stop offset="0.35" stop-color="#003A73"/>
<stop offset="0.73" stop-color="#0062AF"/>
<stop offset="1" stop-color="#0062AF"/>
</linearGradient>
<linearGradient id="paint1_linear_1030_114" x1="67.21" y1="78.25" x2="289.69" y2="78.25" gradientUnits="userSpaceOnUse">
<stop stop-color="#AB004C"/>
<stop offset="0.35" stop-color="#AB004C"/>
<stop offset="0.61" stop-color="#760030"/>
<stop offset="1" stop-color="#1A1A18"/>
</linearGradient>
<linearGradient id="paint2_linear_1030_114" x1="207.22" y1="178.46" x2="350.1" y2="178.46" gradientUnits="userSpaceOnUse">
<stop stop-color="#0062AF"/>
<stop offset="0.27" stop-color="#0062AF"/>
<stop offset="0.65" stop-color="#003A73"/>
<stop offset="1" stop-color="#003A73"/>
</linearGradient>
<linearGradient id="paint3_linear_1030_114" x1="178.45" y1="350.11" x2="178.45" y2="207.23" gradientUnits="userSpaceOnUse">
<stop stop-color="#003A73"/>
<stop offset="0.35" stop-color="#003A73"/>
<stop offset="0.73" stop-color="#0062AF"/>
<stop offset="1" stop-color="#0062AF"/>
</linearGradient>
</defs>
</svg>
