<svg width="277" height="277" viewBox="0 0 277 277" fill="none" xmlns="http://www.w3.org/2000/svg">
<path d="M276.4 0H0V276.4H276.4V0Z" fill="#009B63"/>
<path d="M215.7 72.7C198.6 82.7 193.3 83.5 174.9 94.6C185.6 82.9 189.4 78 196.1 68.1C179 69 154.1 71.1 136.3 75C151.8 66.8 182.4 57.6 198.6 55.4C194.8 50.2 164.5 33.8 157 30.7C181 32.6 210.4 41.5 224.6 50.2C230.3 48.5 236.1 48.3 246.4 47.4C243.8 52 243.7 54.6 233.5 61.4C236.3 69 229.6 110.6 224 121.7C223.7 104.3 222.1 82.3 215.7 72.7Z" fill="white"/>
<path d="M90.8001 222.2C81.0001 218.6 73.9001 214.3 66.1001 207.1C68.4001 200.7 71.1001 195.6 75.4001 189.3C67.4001 190.4 61.6001 191.3 54.7001 192.7C49.1001 182.9 46.6001 173.5 43.7001 160.4C42.1001 174.3 41.6001 184.2 43.6001 195.3C37.3001 197 32.8001 198.6 27.6001 200.9C34.8001 205.4 40.7001 208.8 48.9001 212.6C53.2001 222 57.7001 228.3 65.0001 235.5C63.3001 229.4 62.9001 224.5 63.5001 218.1C72.7001 220.5 80.5001 221.8 90.8001 222.2Z" fill="white"/>
<path d="M116.3 83.6C113.2 87.5 109.6 94.9 108.7 98.4C133.9 101.9 154.2 114.8 154.2 114.8C132 110.9 120.4 111.4 112.2 112.1C104 112.9 102.3 113.9 102.3 113.9C96.4002 126.9 92.8002 149.3 92.8002 149.4C88.8002 139.7 83.0002 120.3 83.0002 120.3C71.8002 126.3 46.2002 150.4 46.2002 150.4C60.3002 122.2 74.6002 109.2 74.6002 109.2C69.7002 104.3 56.8002 101.8 47.4002 101.4C52.3002 99.4 64.9002 97 74.5002 96.6C84.1002 96.3 90.0002 96.9 90.0002 96.9C98.7002 90 111.7 84.3 116.3 83.6Z" fill="white"/>
<path d="M143.1 204.7C138.6 210.7 134.8 215.5 129.9 221C121.4 223.3 114.6 224.2 106.3 224.2C111.4 226.8 116.3 228.4 121.6 229.5C116.3 234.3 111.8 237.7 106.7 241C115.3 238.9 126.8 235.2 135.2 230.3C139.6 230.4 143.7 230.2 146.7 229.6C146 227 145.5 225.1 144.8 221.7C152.8 215.5 158.6 210 165.2 203.3C158.2 208.2 152.1 211.9 144 215.7C143.5 212 143.2 208.9 143.1 204.7Z" fill="white"/>
</svg>
