<svg width="196" height="217" viewBox="0 0 196 217" fill="none" xmlns="http://www.w3.org/2000/svg">
<path d="M63.0601 149.97C62.7801 150.17 62.5101 150.39 62.2501 150.61C61.9901 150.83 61.73 151.06 61.49 151.31C61.24 151.55 61.0101 151.8 60.7801 152.06C60.5501 152.32 60.33 152.59 60.11 152.87C58.29 155.25 57.2101 158.15 56.8101 161.32C56.4201 164.44 56.6701 167.85 57.5101 171.37C58.3401 174.84 59.7501 178.44 61.7001 181.96C63.6401 185.48 66.12 188.95 69.12 192.22L91.3301 216.43L108.07 203.83C110.62 201.91 112.39 199.28 113.37 196.15C114.38 192.95 114.56 189.25 113.95 185.29C113.33 181.28 111.89 177.03 109.67 172.82C107.44 168.59 104.44 164.43 100.75 160.62C100.33 160.18 99.9001 159.75 99.4601 159.33C99.0201 158.91 98.5901 158.5 98.1401 158.1C97.7001 157.7 97.2601 157.31 96.8101 156.94C96.3601 156.56 95.9101 156.19 95.4601 155.84L82.0001 169.99L63.0601 149.98" fill="#00C4B3"/>
<path d="M47.83 0L33.3199 35.85C31.5399 40.25 30.6099 45.03 30.4099 49.91C30.2199 54.7 30.7399 59.61 31.8899 64.4C33.0199 69.12 34.78 73.76 37.09 78.07C39.39 82.36 42.2699 86.36 45.6899 89.83C46.0799 90.24 46.4799 90.63 46.8899 91.01C47.2899 91.39 47.6999 91.76 48.1099 92.12C48.5199 92.48 48.9299 92.83 49.3499 93.16C49.7599 93.5 50.1799 93.83 50.5999 94.14L62.4899 72.89L84.7299 94.79C85.0999 94.46 85.4599 94.11 85.8199 93.75C86.1799 93.39 86.5199 93.01 86.8699 92.62C87.2099 92.23 87.5499 91.82 87.8799 91.4C88.2099 90.97 88.5299 90.54 88.8499 90.08C91.5999 86.12 93.45 81.42 94.4 76.3C95.38 71.05 95.42 65.4 94.53 59.7C93.63 53.91 91.7999 48.13 89.0699 42.76C86.3399 37.36 82.75 32.44 78.3899 28.38L47.8499 0" fill="#00C4B3"/>
<path d="M20.71 88.77C19.29 88.81 17.94 89.03 16.68 89.44C15.43 89.85 14.26 90.43 13.2 91.2C12.15 91.96 11.2 92.89 10.36 94C9.52999 95.09 8.83 96.35 8.25 97.77L0.369995 117.26L19.8 138.45C21.2 139.98 22.65 141.36 24.11 142.58C25.58 143.8 27.07 144.88 28.56 145.78C30.06 146.69 31.57 147.45 33.06 148.03C34.56 148.62 36.05 149.04 37.5 149.29C38.89 149.52 40.25 149.6 41.55 149.51C42.87 149.42 44.14 149.16 45.34 148.72C46.55 148.27 47.69 147.65 48.73 146.84C49.78 146.02 50.74 145.01 51.58 143.8C51.78 143.51 51.98 143.21 52.16 142.9C52.34 142.59 52.52 142.28 52.68 141.96C52.85 141.64 53 141.31 53.15 140.97C53.3 140.63 53.44 140.29 53.57 139.93L35.61 120.96L45.13 103.93C44.8 103.49 44.47 103.05 44.12 102.62C43.78 102.19 43.43 101.76 43.07 101.34C42.71 100.92 42.35 100.5 41.98 100.1C41.61 99.69 41.24 99.29 40.85 98.9C39.16 97.16 37.43 95.64 35.69 94.34C33.95 93.05 32.21 91.99 30.48 91.14C28.77 90.3 27.07 89.69 25.43 89.3C23.8 88.91 22.22 88.74 20.71 88.77Z" fill="#00C4B3"/>
<path d="M124.77 89.09C122.2 89.14 119.69 89.44 117.3 89.99C114.93 90.53 112.67 91.31 110.55 92.32C108.46 93.32 106.5 94.54 104.7 95.99C102.93 97.41 101.32 99.06 99.9001 100.91C99.5701 101.35 99.2401 101.79 98.9401 102.25C98.6401 102.7 98.3401 103.16 98.0601 103.62C97.7801 104.08 97.5201 104.55 97.2701 105.02C97.0201 105.49 96.7801 105.97 96.5601 106.45L120.24 129.77L103.24 147.64C103.6 148.13 103.98 148.61 104.36 149.09C104.74 149.57 105.14 150.04 105.54 150.51C105.95 150.98 106.36 151.44 106.79 151.91C107.21 152.37 107.65 152.83 108.1 153.28C110.08 155.29 112.16 157.11 114.33 158.74C116.51 160.38 118.78 161.83 121.11 163.08C123.46 164.34 125.86 165.4 128.29 166.26C130.75 167.13 133.24 167.78 135.74 168.22C138.13 168.63 140.53 168.85 142.89 168.85C145.28 168.85 147.65 168.64 149.95 168.2C152.28 167.75 154.55 167.07 156.72 166.13C158.92 165.18 161.02 163.98 162.97 162.51L195.95 137.68L158.55 102.9C155.99 100.52 153.27 98.43 150.46 96.66C147.67 94.9 144.79 93.45 141.88 92.3C139 91.16 136.09 90.33 133.2 89.79C130.35 89.26 127.53 89.03 124.78 89.07" fill="#00C4B3"/>
</svg>
