<svg id="logosandtypes_com" xmlns="http://www.w3.org/2000/svg" viewBox="0 0 150 150"><style>.st2{fill:#194f90}</style><path d="M0 0h150v150H0V0z" fill="none" id="Layer_3"/><g id="vakif_katilim"><path d="M71 60.4c2 2 5.2 2 7.1 0L99 39.6c2-2 2-5.2 0-7.2L78.2 11.6c-2-2-5.2-2-7.2 0L50.2 32.4c-2 2-2 5.2 0 7.2L71 60.4zm-5.2-25.7l7.5-7.6c.7-.7 1.9-.7 2.6 0l7.6 7.5c.7.7.7 1.9 0 2.6l-7.6 7.6c-.7.7-1.9.7-2.6 0l-7.5-7.5c-.7-.7-.7-1.9 0-2.6z" fill="#e31d93"/><path class="st2" d="M73.3 83.5l-7.6 7.6c-.7.7-.7 1.9 0 2.6l7.6 7.6c.7.7 1.9.7 2.6 0l7.6-7.6c.7-.7.7-1.9 0-2.6l-7.6-7.6c-.7-.7-1.9-.7-2.6 0z"/><path class="st2" d="M136.2 69.6l-20.8-20.8c-2-2-5.2-2-7.2 0L87.3 69.6c-2 2-2 5.2 0 7.2L100 89.5c1.1 1.8.8 4.2-.6 5.7l-21.5 21.5c-1.8 1.8-4.9 1.8-6.7 0L50 95.5c-1.6-1.6-1.9-4.2-.7-6.1l12.6-12.6c2-2 2-5.2 0-7.2L41.1 48.7c-2-2-5.2-2-7.2 0L13 69.6c-2 2-2 5.2 0 7.2l58 58c2 2 5.2 2 7.2 0l58-58c1.9-2 1.9-5.3 0-7.2zm-89.9 4.9l-7.5 7.6c-.7.7-1.9.7-2.6 0l-7.6-7.6c-.7-.7-.7-1.9 0-2.6l7.5-7.6c.7-.7 1.9-.7 2.6 0l7.6 7.6c.7.7.7 1.9 0 2.6zm74.3 0l-7.6 7.6c-.7.7-1.9.7-2.6 0l-7.6-7.6c-.7-.7-.7-1.9 0-2.6l7.6-7.6c.7-.7 1.9-.7 2.6 0l7.6 7.6c.7.7.7 1.9 0 2.6z"/></g></svg>