<svg width="368" height="241" viewBox="0 0 368 241" fill="none" xmlns="http://www.w3.org/2000/svg">
<path d="M367.241 64.0372C371.942 37.282 347.282 0 280.146 0H113.323C67.6021 0 38.9309 31.3572 33.8384 62.9379L0 240.61C29.7158 240.535 225.508 240.61 225.098 240.61H237.82C307.94 240.219 348.308 224.493 355.676 173.666C360.563 139.458 330.493 117.38 305.926 112.685C330.773 108.157 360.974 99.7169 367.241 64.0372Z" fill="#FBC34E"/>
<path d="M210.585 74.4524C193.573 95.972 131.735 170.667 119.237 184.845C91.3116 216.575 33.7267 211.843 33.335 211.041C33.335 211.004 54.0969 112.946 60.831 85.296C79.2798 10.1171 142.927 27.9104 142.927 27.9104C142.927 27.9104 125.971 30.3511 113.995 45.6105C101.851 61.0748 88.0845 136.421 80.3058 171.635C116.774 129.062 166.767 74.1357 175.292 63.851C211.63 19.9174 268.543 25.9727 268.543 25.9727C268.543 25.9727 246.382 29.0656 210.585 74.4524Z" fill="white"/>
</svg>
