<svg width="347" height="176" viewBox="0 0 347 176" fill="none" xmlns="http://www.w3.org/2000/svg">
<path d="M304.788 121.798C293.365 131.88 278.133 134.83 265.745 129.252C258.343 125.659 252.873 119.17 251.264 112.466C261.669 122.817 280.44 128.072 297.602 109.945C297.602 109.945 313.745 95.0354 304.574 66.8789C300.015 52.9883 282.96 41.4039 268.802 39.9558C247.671 36.577 227.72 43.7637 213.936 63.071C197.686 88.2242 195.594 116.22 183.796 144.162C181.811 148.774 177.628 150.759 173.445 150.544C169.261 150.759 165.078 148.774 163.094 144.162C151.295 116.22 149.257 88.1706 133.006 63.071C119.223 43.71 99.2721 36.5234 78.1413 39.9558C63.9826 41.4039 46.9277 52.9347 42.4227 66.8789C33.2517 94.9818 49.3948 109.945 49.3948 109.945C66.6105 128.072 85.3279 122.817 95.7325 112.466C94.0699 119.17 88.6531 125.713 81.1983 129.252C68.8094 134.776 53.578 131.88 42.1545 121.798C25.2606 105.065 22.7399 83.5583 29.4438 63.7682C37.5422 39.6877 61.8909 27.6205 81.2519 26.1189C104.153 24.0809 135.795 38.1323 148.399 62.1056C151.348 67.6297 157.516 81.9493 157.516 81.9493H173.552H189.641C189.641 81.9493 195.809 67.6297 198.759 62.1056C211.362 38.1323 243.005 24.0809 265.905 26.1189C285.266 27.6205 309.615 39.6877 317.714 63.7682C324.418 83.5583 321.843 105.065 304.949 121.798M342.813 57.2252C323.988 3.16455 270.089 0.161179 264.565 0.000284005C240.484 -0.4824 213.829 7.88413 193.556 27.7278C185.404 35.0217 179.612 43.4955 173.445 52.7201C167.331 43.5491 161.485 35.0217 153.386 27.7278C133.06 7.88413 106.405 -0.428769 82.3246 0.000284005C76.8005 0.161179 22.9008 3.16455 4.0761 57.2252C-2.62785 76.5862 -1.12617 101.686 8.90294 120.135C18.8248 141.427 42.5299 158.75 67.5223 156.926C85.7034 156.444 105.493 144.859 112.841 126.41C119.009 109.784 117.078 91.9784 102.919 77.6588C103.295 81.3057 103.455 86.3471 99.8621 91.0131C94.1235 98.8969 85.1134 100.828 75.7815 97.5025C67.5223 93.7483 64.4653 87.7952 65.2697 79.9113C65.8597 73.2074 71.2228 68.0588 76.8005 65.5381C87.7414 60.8185 97.8777 63.1783 107.692 72.6174C123.889 90.6913 125.766 118.097 133.435 138.852C138.852 155.961 147.487 170.817 166.365 175.054C168.671 175.536 170.978 175.805 173.337 175.805C175.697 175.805 178.057 175.536 180.309 175.054C199.188 170.763 207.769 155.907 213.239 138.852C220.909 118.097 222.786 90.6913 238.982 72.6174C248.851 63.1783 258.933 60.8185 269.874 65.5381C275.452 68.0588 280.869 73.2074 281.459 79.9113C282.263 87.7952 279.206 93.7483 270.947 97.5025C261.615 100.828 252.605 98.9505 246.92 91.0131C243.327 86.2935 243.487 81.3057 243.809 77.6588C229.65 91.9784 227.773 109.73 233.887 126.41C241.181 144.913 261.025 156.497 279.206 156.926C304.198 158.75 327.957 141.427 337.825 120.135C347.855 101.739 349.41 76.5862 342.652 57.2252M173.498 0.000284005V0.0539156C173.498 0.0539156 173.498 0.0539156 173.498 0.000284005Z" fill="#BAB9BB"/>
</svg>
