<svg width="67" height="142" viewBox="0 0 67 142" fill="none" xmlns="http://www.w3.org/2000/svg">
<path fill-rule="evenodd" clip-rule="evenodd" d="M52.9365 31.2442L42.6758 39.3172L35.8353 44.6786V69.2057L39.3788 66.4633V77.8641L35.8353 80.6064V105.133L39.3788 102.36V113.73L35.8353 116.534V141.061L42.6758 135.7L52.9365 127.627L66.5557 116.966V75.7996C66.5557 74.1049 65.2308 72.2561 63.9367 71.4242C66.0936 69.6679 66.5557 67.7883 66.5557 65.7238V20.6138L52.9365 31.275V31.2442ZM61.7181 93.7635C61.7181 95.9204 60.8554 96.9064 58.9758 98.3854L52.9365 103.1L44.2164 110.002V98.6011L52.9365 91.699L58.1747 87.6626C59.931 86.2452 61.7181 86.5841 61.7181 88.5253V93.7635ZM61.7181 57.8357C61.7181 59.9926 60.8554 60.9786 58.9758 62.4576L52.9365 67.172L44.2164 74.0433V62.6733L52.9365 55.7713L58.1747 51.7348C59.931 50.3174 61.7181 50.6563 61.7181 52.5975V57.8357Z" fill="#ED1C24"/>
<path fill-rule="evenodd" clip-rule="evenodd" d="M49.4854 26.7456V17.9947L42.7066 23.3869L40.7038 24.9892V15.8378L42.7066 14.2355L49.4854 8.75085V0L42.7066 5.45387L35.8661 10.9386V37.6841L42.7066 32.2302L49.4854 26.7456Z" fill="#ED1C24"/>
<path fill-rule="evenodd" clip-rule="evenodd" d="M17.0703 0V8.75085L21.4765 12.2943V21.9079L19.751 20.5522V29.3338L23.8491 32.6924L28.0089 36.051V27.2694L26.2525 25.852V16.1767L30.628 19.6894V10.9386L23.8491 5.45387L17.0703 0Z" fill="#ED1C24"/>
<path fill-rule="evenodd" clip-rule="evenodd" d="M0 20.6138V45.1408L23.8491 63.9367L26.7147 66.1552L23.8491 68.99L20.3365 72.4718L0 56.5416V81.0686L6.50151 86.1527L0 92.4694V116.996L23.8491 135.731L30.628 141.092V116.534L23.8491 111.204L3.97486 95.5506L10.4147 89.2032L23.8491 99.8028L30.628 105.164V80.6064L24.2497 75.5531L30.628 69.2365V44.6786L23.8491 39.348L0 20.6138Z" fill="#ED1C24"/>
</svg>
